PathFileType	4	(X/Y/Z)	D:\TRACE\spot_10-12-23\spot_body_motion_3_3-platform.trc
DataRate	CameraRate	NumFrames	NumMarkers	Units	OrigDataRate	OrigDataStartFrame	OrigNumFrames
100.00	100.00	      48	5	mm	100.00	5251	      7000
Frame#	Time	Left_Front			Right_Front			Left_Aft			Right_Aft			Post			
		X1	Y1	Z1	X2	Y2	Z2	X3	Y3	Z3	X4	Y4	Z4	X5	Y5	Z5	

5251	52.500	-796.75977	-13.21584	-645.90924	775.98761	-8.99912	-639.32397	-713.50330	18.90866	491.61249	703.72180	26.17011	577.51208	-13.42080	714.07251	-985.90350	
5252	52.510	-796.47455	-13.79557	-646.06232	776.34631	-9.52137	-639.43384	-713.22589	19.24191	491.51694	703.91534	26.63513	577.37756	-13.43156	713.58954	-986.54498	
5253	52.520	-795.92993	-14.59686	-646.21222	776.77356	-9.91685	-639.54309	-712.96881	19.55634	491.38885	704.16443	27.02268	577.23846	-13.04990	712.38483	-987.34192	
5254	52.530	-795.60083	-15.16998	-646.40601	777.11920	-10.48560	-639.41461	-712.80646	19.99195	490.88321	704.45306	27.36889	577.03247	-12.97309	711.74475	-988.15515	
5255	52.540	-795.37762	-15.78896	-646.54388	777.19086	-11.05564	-639.53723	-712.49200	20.24257	490.88019	704.78113	27.84075	576.82404	-12.88586	711.10339	-988.79932	
5256	52.550	-794.67938	-16.74693	-646.99579	777.34674	-11.56024	-639.67242	-712.35345	20.70145	490.82266	704.92523	28.29197	576.62286	-12.70040	710.11078	-989.49445	
5257	52.560	-795.10895	-16.70404	-646.68774	777.50366	-12.20144	-639.73914	-712.12640	21.06729	490.86694	704.97687	28.56671	576.58362	-12.30812	709.32056	-990.09546	
5258	52.570	-794.85706	-17.28110	-646.79645	777.59497	-12.74431	-639.89764	-711.99414	21.49677	490.44647	705.25067	29.01883	576.57605	-12.06350	708.60944	-990.62689	
5259	52.580	-794.82050	-17.69905	-646.88977	777.84100	-13.16762	-640.01056	-711.69598	21.81498	490.17361	705.49365	29.48354	576.41168	-11.70979	707.93378	-991.30658	
5260	52.590	-794.53998	-18.17476	-646.99316	777.87433	-13.50675	-640.18231	-711.26624	21.97900	490.00504	705.65833	29.92585	576.29022	-11.42942	707.10669	-991.96002	
5261	52.600	-794.18732	-18.63823	-647.09119	778.13562	-14.11214	-640.30981	-711.12708	22.41604	489.93283	705.98383	30.44213	576.22638	-11.20414	706.26593	-992.32391	
5262	52.610	-793.57855	-19.44123	-647.27277	778.59613	-14.64856	-640.37158	-711.03729	22.73463	489.76050	706.35803	30.83903	576.03668	-11.06612	705.53076	-992.93292	
5263	52.620	-793.48724	-19.91006	-647.24054	778.93982	-15.16943	-640.57306	-710.70697	23.15307	489.65195	706.84967	31.25452	575.89996	-10.81141	704.81451	-993.61670	
5264	52.630	-793.19885	-20.48363	-647.40192	779.34558	-15.57680	-640.55048	-710.33136	23.55226	489.41956	707.10291	31.60279	575.72961	-10.43343	704.03052	-994.21588	
5265	52.640	-792.82068	-21.06143	-647.62360	779.48059	-16.03791	-640.78662	-710.06793	23.94177	489.37076	707.23419	31.91022	575.62848	-10.00803	703.22986	-994.83917	
5266	52.650	-792.19086	-21.66736	-648.00690	779.74445	-16.56081	-640.93042	-709.99683	24.14022	489.32239	707.47101	32.26851	575.51233	-9.86941	702.39331	-995.68713	
5267	52.660	-792.09363	-22.05870	-647.96906	780.04156	-17.14950	-641.13245	-709.64587	24.40337	489.26941	707.69012	32.65485	575.39001	-9.73744	701.72961	-996.43695	
5268	52.670	-792.31879	-22.11909	-647.85260	780.44934	-17.77554	-641.02100	-709.24829	24.79656	489.05206	708.01044	33.06024	575.13281	-9.35051	700.93329	-997.12811	
5269	52.680	-791.64282	-23.17980	-648.05054	780.86749	-18.30300	-641.05078	-708.89813	25.23481	488.94095	708.35480	33.62862	574.96820	-9.13637	699.92188	-997.70917	
5270	52.690	-791.45837	-23.24168	-648.06958	780.96594	-18.61514	-641.20660	-708.53430	25.57223	488.80896	708.59845	34.06338	574.89642	-8.67827	699.21362	-998.23761	
5271	52.700	-791.21100	-23.96350	-648.00128	781.42249	-19.12320	-641.14868	-708.37018	25.92721	488.59180	708.91925	34.54398	574.76855	-8.23920	698.51831	-999.05157	
5272	52.710	-791.05804	-24.18553	-648.01251	781.72748	-19.60877	-641.18170	-707.98401	26.20453	488.41360	709.22870	34.85741	574.57898	-8.07569	697.79517	-999.71338	
5273	52.720	-790.27100	-25.04561	-648.33826	781.91199	-19.93864	-641.43097	-707.63269	26.45129	488.36386	709.45233	35.06040	574.52484	-7.79359	697.09760	-1000.24945	
5274	52.730	-789.80115	-25.68764	-648.57550	782.26495	-20.36721	-641.58673	-707.24512	26.62000	488.42691	709.84302	35.43264	574.45392	-7.15389	696.47144	-1000.88739	
5275	52.740	-789.87408	-25.73715	-648.46136	782.83063	-20.90660	-641.58466	-707.03491	27.07590	488.28702	710.31049	35.80582	574.27472	-6.84473	695.78931	-1001.44818	
5276	52.750	-789.48981	-26.10066	-648.55548	783.32184	-21.32184	-641.61182	-706.77307	27.40686	488.13745	710.87866	36.24644	574.16815	-6.48849	695.26202	-1001.88898	
5277	52.760	-789.19830	-26.26112	-648.62286	783.79584	-21.76434	-641.59918	-706.28876	27.73647	488.06897	711.35901	36.56671	574.05890	-6.17615	694.66364	-1002.51556	
5278	52.770	-788.69989	-27.04861	-648.59021	784.03284	-22.18069	-641.69751	-705.78925	27.97357	488.04947	711.51709	36.73688	574.05115	-6.11753	694.00012	-1002.91101	
5279	52.780	-788.13556	-27.68002	-648.77637	784.14313	-22.62184	-641.83820	-705.46637	28.23442	487.57574	711.73315	36.96400	573.89941	-5.65736	693.20776	-1003.26532	
5280	52.790	-787.81580	-27.85699	-648.78418	784.62909	-23.03522	-641.86224	-705.18518	28.41725	487.48807	712.15143	37.40422	573.73596	-5.09343	692.74786	-1003.56641	
5281	52.800	-787.31787	-28.27608	-648.93365	784.83765	-23.39779	-642.01154	-704.79749	28.70961	487.44147	712.48065	37.75714	573.59540	-4.38919	692.05994	-1004.07977	
5282	52.810	-786.96796	-28.67184	-649.00562	785.26306	-23.75412	-642.15546	-704.44269	29.00004	487.37033	712.80292	38.11116	573.52289	-4.21381	691.44336	-1004.41229	
5283	52.820	-786.78223	-28.95883	-649.08612	785.66791	-23.99998	-642.23987	-704.10742	29.29981	487.29178	713.22620	38.42806	573.41180	-3.97017	690.88690	-1004.79559	
5284	52.830	-786.50208	-29.32250	-649.11865	785.93030	-24.24634	-642.28662	-703.82593	29.43379	487.14145	713.57019	38.65897	573.28021	-3.72579	690.35144	-1005.59088	
5285	52.840	-786.31329	-29.51421	-649.16528	786.46252	-24.61755	-642.36108	-703.39832	29.59334	487.02148	713.97815	38.84830	573.18127	-3.38416	689.78687	-1006.08893	
5286	52.850	-785.90906	-29.76717	-649.28613	787.08844	-25.05943	-642.22766	-702.79199	29.87298	486.89670	713.66205	39.04066	573.26691	-2.98458	689.32104	-1006.56140	
5287	52.860	-785.41766	-30.09482	-649.32916	787.34930	-25.33435	-642.34100	-702.38464	30.10334	486.88446	714.12476	39.34168	573.17529	-2.48772	688.92816	-1007.05597	
5288	52.870	-784.83685	-30.43080	-649.43365	787.73334	-25.66482	-642.34808	-702.16040	30.37085	486.78580	714.45270	39.66063	573.19177	-2.05142	688.44403	-1007.63708	
5289	52.880	-784.37836	-30.86629	-649.53217	788.05609	-25.94898	-642.53717	-701.90137	30.56265	486.72845	714.95612	39.91878	572.98871	-1.71019	687.88910	-1008.12848	
5290	52.890	-784.16223	-30.98727	-649.44489	788.38666	-26.27980	-642.68243	-701.45166	30.77049	486.70392	715.26971	40.07344	572.83752	-1.49051	687.43433	-1008.61084	
5291	52.900	-783.43719	-31.64626	-649.64398	788.55963	-26.53041	-642.85181	-700.88623	30.90365	486.71710	716.01508	40.39740	572.67969	-1.02702	687.10620	-1008.98431	
5292	52.910	-783.34821	-31.68825	-649.56262	789.06616	-26.90170	-642.77051	-700.48828	31.05706	486.65997	716.45007	40.58628	572.60760	-0.58168	686.76947	-1009.27350	
5293	52.920	-782.99854	-31.90262	-649.66193	789.60297	-27.06511	-642.69086	-700.13104	31.13387	486.61121	717.08789	40.83334	572.52716	-0.23486	686.41083	-1009.39307	
5294	52.930	-782.67651	-32.01052	-649.72528	790.06427	-27.25477	-642.64935	-699.63684	31.32071	486.64139	717.46783	40.99144	572.49091	0.22782	685.98779	-1009.64868	
5295	52.940	-782.33307	-32.42714	-649.67883	790.42377	-27.49226	-642.73187	-699.28967	31.49243	486.56592	717.91882	41.24722	572.44061	0.81459	685.49854	-1009.85773	
5296	52.950	-782.00488	-32.36132	-649.61829	790.77887	-27.68842	-642.87091	-698.72675	31.56731	486.45285	718.37891	41.38721	572.39545	1.23891	685.24707	-1009.98041	
5297	52.960	-781.30444	-32.76196	-649.81519	791.18658	-27.84949	-642.86755	-698.45764	31.72658	486.41861	718.84796	41.47031	572.28796	1.56645	685.04218	-1010.16541	
5298	52.970	-780.42169	-33.22874	-650.03229	791.56415	-28.03815	-642.94531	-698.28918	31.78721	486.37164	719.17096	41.53378	572.20264	1.95544	684.81018	-1010.32458	
